<svg width="404" height="231" viewBox="0 0 404 231" fill="none" xmlns="http://www.w3.org/2000/svg">
<g clip-path="url(#clip0_20_3)">
<path d="M404 0H0V231H404V0Z" fill="#DA4444"/>
<path d="M241.078 89.6671L230.028 96.0568L207.59 108.995L197.84 114.605C197.391 114.865 197.019 115.239 196.76 115.689C196.501 116.138 196.366 116.648 196.368 117.167V128.398L190.768 125.16V144.571L179.545 138.091V151.032L185.16 154.27V160.558L173.941 154.137V149.485C173.94 148.969 173.804 148.462 173.545 148.015C173.286 147.568 172.914 147.197 172.466 146.939L152.978 135.708C152.531 135.449 152.159 135.077 151.901 134.63C151.642 134.183 151.505 133.676 151.503 133.159V91.2631C151.503 90.7456 151.64 90.2372 151.899 89.7889C152.157 89.3406 152.53 88.9682 152.978 88.7091L194.899 64.5373C195.341 64.2781 195.843 64.1402 196.356 64.1375C196.868 64.1348 197.373 64.2674 197.817 64.522L197.846 64.5373L235.626 86.318H235.641" fill="#423333"/>
<path d="M207.592 134.899V147.799L201.985 151.035V138.095L207.592 134.899Z" fill="#423333"/>
<path d="M235.634 118.686V131.627L230.026 134.859L230.022 121.922L235.634 118.686Z" fill="#423333"/>
<path d="M229.083 97.6816V104.144L230.5 103.328L234.698 100.906V107.382L236.113 106.566L241.4 103.521L241.502 103.462L241.903 103.226L242.961 119.836L240.487 121.265L240.463 121.279L240.438 121.296L240.418 121.307L236.583 123.518V117.065L235.168 117.882L229.556 121.11L223.943 124.335L223.469 124.607V131.084L219.758 133.221V126.752L218.341 127.571L214.147 129.996V123.518L212.73 124.335L207.118 127.574L206.645 127.847V134.349L201.522 137.273L201.047 137.545V144.01L196.379 146.703L191.723 144.021V126.789L195.905 129.207L196.377 129.481L196.851 129.207L202.464 125.969L202.938 125.697V119.234L208.066 116.266L208.536 115.994V109.534L229.088 97.6816M230.034 96.0492L207.596 108.988V115.448L201.996 118.688V125.151L196.379 128.389L190.779 125.151V144.554L196.379 147.794L201.992 144.554V138.091L207.592 134.897V128.383L213.205 125.145V131.627L218.821 128.389V134.846L224.413 131.627V125.151L230.028 121.926L235.641 118.688V125.151L240.931 122.102L240.975 122.074L243.951 120.349L242.758 101.625L241.032 102.64L240.929 102.698L235.639 105.746V99.2718L230.026 102.504V96.0492H230.034Z" fill="#423333"/>
<path d="M286.107 68.7831V165.518C286.11 166.035 285.975 166.543 285.716 166.991C285.457 167.438 285.084 167.809 284.635 168.064L199.319 217.27C198.424 217.791 197.408 218.065 196.372 218.065C195.337 218.065 194.32 217.791 193.426 217.27L152.978 193.953C152.53 193.695 152.158 193.324 151.899 192.876C151.64 192.429 151.504 191.921 151.503 191.405L151.49 141.339L173.941 154.139L185.158 160.558L194.899 166.114C195.347 166.37 195.854 166.504 196.37 166.504C196.885 166.504 197.392 166.37 197.84 166.114L239.456 142.002C239.902 141.746 240.274 141.377 240.532 140.932C240.791 140.488 240.928 139.983 240.929 139.469L240.973 122.083L241.032 102.652L241.076 89.6824V89.6671L241.238 89.5789L281.687 66.2463C282.134 65.9899 282.641 65.855 283.157 65.8551C283.672 65.8552 284.179 65.9903 284.626 66.2469C285.073 66.5035 285.445 66.8727 285.705 67.3177C285.965 67.7626 286.104 68.2679 286.107 68.7831Z" fill="#423333"/>
<path d="M276.179 63.108L242.94 82.2791C242.493 82.5362 241.986 82.6715 241.47 82.6715C240.955 82.6715 240.448 82.5362 240.001 82.2791L202.1 60.5444L197.963 58.1744C197.517 57.9184 197.011 57.7837 196.497 57.7837C195.983 57.7837 195.477 57.9184 195.031 58.1744L190.869 60.5579L147.476 85.588C147.029 85.8464 146.657 86.2176 146.399 86.6645C146.141 87.1113 146.004 87.6182 146.003 88.1343V126.624C146.002 127.139 145.865 127.645 145.607 128.091C145.349 128.537 144.978 128.907 144.531 129.165C144.085 129.423 143.578 129.56 143.063 129.561C142.547 129.562 142.04 129.428 141.592 129.172L108.223 109.928C107.775 109.67 107.403 109.299 107.144 108.851C106.885 108.403 106.748 107.895 106.749 107.378V65.4934C106.75 64.9777 106.887 64.4714 107.146 64.0252C107.405 63.579 107.776 63.2086 108.223 62.9509L151.59 37.9361L193.531 13.7432C194.427 13.2265 195.443 12.9544 196.478 12.9544C197.512 12.9544 198.529 13.2265 199.424 13.7432L235.733 34.6789L235.891 34.7709L241.182 37.8211L276.179 58.0096C276.627 58.2681 276.999 58.6398 277.258 59.0875C277.517 59.5351 277.653 60.0429 277.653 60.5598C277.653 61.0766 277.517 61.5844 277.258 62.0321C276.999 62.4797 276.627 62.8514 276.179 63.1099V63.108Z" fill="#423333"/>
<path d="M106.747 120.65V165.618C106.747 166.134 106.883 166.642 107.141 167.09C107.4 167.537 107.772 167.909 108.219 168.168L141.589 187.412C142.036 187.668 142.543 187.802 143.059 187.8C143.575 187.799 144.082 187.662 144.528 187.404C144.975 187.146 145.345 186.775 145.604 186.329C145.862 185.883 145.998 185.377 145.999 184.862V139.904C145.999 139.387 145.863 138.88 145.605 138.432C145.346 137.985 144.974 137.613 144.527 137.355L111.157 118.1C110.71 117.844 110.202 117.71 109.687 117.711C109.171 117.713 108.664 117.849 108.218 118.107C107.771 118.366 107.4 118.736 107.142 119.182C106.884 119.629 106.748 120.135 106.747 120.65Z" fill="#423333"/>
</g>
<defs>
<clipPath id="clip0_20_3">
<rect width="404" height="231" fill="white"/>
</clipPath>
</defs>
</svg>
