<svg width="32" height="23" viewBox="0 0 32 23" fill="none" xmlns="http://www.w3.org/2000/svg">
<g clip-path="url(#clip0_11_117)">
<path d="M27.5719 2.55741C25.3896 1.11405 22.8659 0.234011 20.2378 -1.86868e-05C20.0936 -0.0115669 19.9492 0.0211834 19.8251 0.0936218C19.701 0.16606 19.6034 0.274539 19.5459 0.403785C19.5459 0.403785 19.2865 1.09362 19.0616 1.76662C20.9924 2.07753 22.8568 2.69722 24.5795 3.60057C24.837 3.75131 25.0243 3.99351 25.1018 4.27605C25.1793 4.55859 25.1408 4.85934 24.9946 5.11483C24.8921 5.28104 24.7478 5.41919 24.5753 5.51631C24.4029 5.61342 24.2079 5.66633 24.0086 5.67006C23.8025 5.66985 23.5998 5.61768 23.4205 5.51863C21.1289 4.35439 18.5853 3.7373 16 3.71834C13.4385 3.75105 10.9207 4.36766 8.64865 5.51863C8.38716 5.66812 8.07533 5.71045 7.78176 5.6363C7.48819 5.56215 7.23693 5.3776 7.08324 5.12324C6.92956 4.86889 6.88605 4.56557 6.96228 4.28002C7.03851 3.99446 7.22824 3.75005 7.48973 3.60057C9.20313 2.70404 11.0551 2.08464 12.973 1.76662C12.7135 1.09362 12.4714 0.403785 12.4541 0.403785C12.3989 0.272938 12.3017 0.162937 12.177 0.0901715C12.0523 0.0174061 11.9068 -0.0142285 11.7622 -1.86868e-05C9.1206 0.233441 6.58416 1.11955 4.39351 2.57423C2.92324 3.90342 0 11.6093 0 18.2721C0.0022847 18.3892 0.0318561 18.5043 0.0864865 18.6086C2.11027 21.9736 7.62811 22.9663 8.89081 23C9.00069 23 9.10915 22.9758 9.20802 22.9292C9.30689 22.8826 9.3936 22.8147 9.46162 22.7308L10.8108 20.9305C9.15757 20.5922 7.58108 19.9651 6.15784 19.0797C5.918 18.8995 5.75893 18.6362 5.71382 18.3446C5.6687 18.0531 5.74101 17.7559 5.91568 17.515C6.09515 17.2792 6.36325 17.1221 6.66141 17.078C6.95957 17.0338 7.26358 17.1063 7.50703 17.2794C10.082 18.7101 13.02 19.4041 15.9827 19.2816C18.9463 19.4134 21.887 18.7188 24.4584 17.2794C24.5775 17.1795 24.7166 17.1045 24.867 17.0593C25.0173 17.0142 25.1756 16.9997 25.332 17.0169C25.4884 17.034 25.6394 17.0824 25.7756 17.1591C25.9118 17.2357 26.0303 17.3389 26.1235 17.4622C26.2168 17.5854 26.2828 17.7261 26.3175 17.8754C26.3522 18.0247 26.3548 18.1794 26.3252 18.3297C26.2955 18.48 26.2342 18.6227 26.1451 18.7489C26.0561 18.8751 25.9411 18.982 25.8076 19.0629C24.395 19.9601 22.823 20.5935 21.1719 20.9305L22.4865 22.7308C22.5545 22.8147 22.6412 22.8826 22.7401 22.9292C22.839 22.9758 22.9474 23 23.0573 23C24.32 23 29.8378 22.0578 31.8616 18.6086C31.9163 18.5043 31.9458 18.3892 31.9481 18.2721C32 11.6093 29.0768 3.90342 27.5719 2.55741ZM11.4335 16.0175C11.0911 15.978 10.7601 15.8729 10.4596 15.7083C10.1591 15.5437 9.89514 15.3229 9.68287 15.0585C9.4706 14.7942 9.31425 14.4915 9.22284 14.1681C9.13142 13.8447 9.10676 13.5068 9.15027 13.1741C9.08192 12.5128 9.28268 11.8518 9.70951 11.3328C10.1363 10.8138 10.7553 10.4782 11.4335 10.3979C12.1118 10.4782 12.7307 10.8138 13.1575 11.3328C13.5843 11.8518 13.7851 12.5128 13.7168 13.1741C13.7851 13.8354 13.5843 14.4964 13.1575 15.0153C12.7307 15.5343 12.1118 15.8699 11.4335 15.9502V16.0175ZM20.5665 16.0175C19.8882 15.9372 19.2693 15.6016 18.8425 15.0826C18.4157 14.5637 18.2149 13.9027 18.2832 13.2414C18.2149 12.5801 18.4157 11.9191 18.8425 11.4001C19.2693 10.8811 19.8882 10.5455 20.5665 10.4652C21.2447 10.5455 21.8637 10.8811 22.2905 11.4001C22.7173 11.9191 22.9181 12.5801 22.8497 13.2414C22.8992 13.8916 22.6898 14.5355 22.2648 15.0398C21.8398 15.544 21.2317 15.87 20.5665 15.9502V16.0175Z" fill="#F7F7F7"/>
</g>
<defs>
<clipPath id="clip0_11_117">
<rect width="32" height="23" fill="white"/>
</clipPath>
</defs>
</svg>
