<svg width="35" height="35" viewBox="0 0 35 35" fill="none" xmlns="http://www.w3.org/2000/svg">
<path d="M28.7203 0.299805C27.9868 0.299805 27.2532 0.579932 26.6935 1.13965L23.2333 4.5998L30.4 11.7665L33.8601 8.30632C34.9796 7.18688 34.9796 5.3721 33.8601 4.25267L30.7471 1.13965C30.1874 0.579932 29.4538 0.299805 28.7203 0.299805ZM20.3667 7.46647L3.53899 24.2941C3.53899 24.2941 4.85445 24.1763 5.34465 24.6665C5.83485 25.1567 5.43132 28.3645 6.03332 28.9665C6.63532 29.5685 9.8229 29.1447 10.2801 29.602C10.7374 30.0592 10.7057 31.4608 10.7057 31.4608L27.5333 14.6331L20.3667 7.46647ZM1.73332 28.9665L0.381173 32.7962C0.328017 32.9473 0.300575 33.1063 0.299988 33.2665C0.299988 33.6466 0.450999 34.0112 0.719801 34.28C0.988603 34.5488 1.35318 34.6998 1.73332 34.6998C1.89353 34.6992 2.0525 34.6718 2.20363 34.6186C2.20831 34.6168 2.21298 34.6149 2.21763 34.613L2.25402 34.6018C2.25683 34.6 2.25963 34.5981 2.26242 34.5962L6.03332 33.2665L3.88332 31.1165L1.73332 28.9665Z" fill="black"/>
</svg>
