<svg width="35" height="45" viewBox="0 0 35 45" fill="none" xmlns="http://www.w3.org/2000/svg">
<path d="M13.74 0.879883C12.1932 0.879883 10.92 2.15316 10.92 3.69988V5.57988H1.51998C1.39542 5.57812 1.27175 5.60113 1.15616 5.64758C1.04057 5.69403 0.935361 5.76299 0.846654 5.85045C0.757946 5.93791 0.687506 6.04213 0.639427 6.15706C0.591348 6.27198 0.566589 6.39531 0.566589 6.51988C0.566589 6.64446 0.591348 6.76779 0.639427 6.88271C0.687506 6.99763 0.757946 7.10185 0.846654 7.18931C0.935361 7.27678 1.04057 7.34574 1.15616 7.39218C1.27175 7.43863 1.39542 7.46164 1.51998 7.45988H2.45998V41.2999C2.45998 42.8546 3.72522 44.1199 5.27998 44.1199H29.72C31.2747 44.1199 32.54 42.8546 32.54 41.2999V7.45988H33.48C33.6045 7.46164 33.7282 7.43863 33.8438 7.39218C33.9594 7.34574 34.0646 7.27678 34.1533 7.18931C34.242 7.10185 34.3125 6.99763 34.3605 6.88271C34.4086 6.76779 34.4334 6.64446 34.4334 6.51988C34.4334 6.39531 34.4086 6.27198 34.3605 6.15706C34.3125 6.04213 34.242 5.93791 34.1533 5.85045C34.0646 5.76299 33.9594 5.69403 33.8438 5.64758C33.7282 5.60113 33.6045 5.57812 33.48 5.57988H24.08V3.69988C24.08 2.15316 22.8067 0.879883 21.26 0.879883H13.74ZM13.74 2.75988H21.26C21.7812 2.75988 22.2 3.17861 22.2 3.69988V5.57988H12.8V3.69988C12.8 3.17861 13.2187 2.75988 13.74 2.75988ZM11.86 12.1599C12.3789 12.1599 12.8 12.581 12.8 13.0999V36.5999C12.8 37.1197 12.3789 37.5399 11.86 37.5399C11.3411 37.5399 10.92 37.1197 10.92 36.5999V13.0999C10.92 12.581 11.3411 12.1599 11.86 12.1599ZM17.5 12.1599C18.0189 12.1599 18.44 12.581 18.44 13.0999V36.5999C18.44 37.1197 18.0189 37.5399 17.5 37.5399C16.9811 37.5399 16.56 37.1197 16.56 36.5999V13.0999C16.56 12.581 16.9811 12.1599 17.5 12.1599ZM23.14 12.1599C23.6598 12.1599 24.08 12.581 24.08 13.0999V36.5999C24.08 37.1197 23.6598 37.5399 23.14 37.5399C22.6202 37.5399 22.2 37.1197 22.2 36.5999V13.0999C22.2 12.581 22.6202 12.1599 23.14 12.1599Z" fill="black"/>
</svg>
