<svg width="43" height="27" viewBox="0 0 43 27" fill="none" xmlns="http://www.w3.org/2000/svg">
<path d="M0.429993 13.5004C2.41055 9.61539 5.42669 6.35361 9.14506 4.07553C12.8634 1.79746 17.1393 0.591797 21.5 0.591797C25.8607 0.591797 30.1365 1.79746 33.8549 4.07553C37.5733 6.35361 40.5894 9.61539 42.57 13.5004C40.5894 17.3854 37.5733 20.6472 33.8549 22.9253C30.1365 25.2033 25.8607 26.409 21.5 26.409C17.1393 26.409 12.8634 25.2033 9.14506 22.9253C5.42669 20.6472 2.41055 17.3854 0.429993 13.5004ZM21.5 22.1004C23.7809 22.1004 25.9683 21.1943 27.5811 19.5815C29.1939 17.9687 30.1 15.7813 30.1 13.5004C30.1 11.2195 29.1939 9.03209 27.5811 7.41928C25.9683 5.80647 23.7809 4.9004 21.5 4.9004C19.2191 4.9004 17.0317 5.80647 15.4189 7.41928C13.8061 9.03209 12.9 11.2195 12.9 13.5004C12.9 15.7813 13.8061 17.9687 15.4189 19.5815C17.0317 21.1943 19.2191 22.1004 21.5 22.1004ZM21.5 17.8004C20.3596 17.8004 19.2658 17.3474 18.4594 16.541C17.653 15.7346 17.2 14.6408 17.2 13.5004C17.2 12.36 17.653 11.2662 18.4594 10.4598C19.2658 9.65344 20.3596 9.2004 21.5 9.2004C22.6404 9.2004 23.7341 9.65344 24.5406 10.4598C25.347 11.2662 25.8 12.36 25.8 13.5004C25.8 14.6408 25.347 15.7346 24.5406 16.541C23.7341 17.3474 22.6404 17.8004 21.5 17.8004Z" fill="black"/>
</svg>
