<svg width="27" height="27" viewBox="0 0 27 27" fill="none" xmlns="http://www.w3.org/2000/svg">
<path fill-rule="evenodd" clip-rule="evenodd" d="M0 13.19C0 7 0 3.86 1.93 1.93C3.86 0 7 0 13.19 0C19.38 0 22.52 0 24.45 1.93C26.38 3.86 26.38 6.93 26.38 13.19C26.38 19.45 26.38 22.52 24.45 24.45C22.52 26.38 19.45 26.38 13.19 26.38C6.93 26.38 3.86 26.38 1.93 24.45C0 22.52 0 19.41 0 13.19ZM13.19 5.61C13.4552 5.61 13.7096 5.71536 13.8971 5.90289C14.0846 6.09043 14.19 6.34478 14.19 6.61V13.46L16.46 11.19C16.6469 11.0068 16.8982 10.9041 17.16 10.9041C17.4218 10.9041 17.6731 11.0068 17.86 11.19C18.0432 11.3769 18.1459 11.6282 18.1459 11.89C18.1459 12.1518 18.0432 12.4031 17.86 12.59L13.86 16.59C13.6731 16.7732 13.4218 16.8759 13.16 16.8759C12.8982 16.8759 12.6469 16.7732 12.46 16.59L8.46 12.59C8.27677 12.4031 8.17414 12.1518 8.17414 11.89C8.17414 11.6282 8.27677 11.3769 8.46 11.19C8.64693 11.0068 8.89825 10.9041 9.16 10.9041C9.42175 10.9041 9.67307 11.0068 9.86 11.19L12.13 13.46V6.59C12.1325 6.45516 12.1622 6.32222 12.2173 6.19916C12.2725 6.0761 12.352 5.96547 12.451 5.87392C12.55 5.78237 12.6665 5.71179 12.7935 5.66644C12.9205 5.62108 13.0554 5.60189 13.19 5.61ZM7.91 18.79C7.64478 18.79 7.39043 18.8954 7.20289 19.0829C7.01536 19.2704 6.91 19.5248 6.91 19.79C6.91 20.0552 7.01536 20.3096 7.20289 20.4971C7.39043 20.6846 7.64478 20.79 7.91 20.79H18.47C18.7352 20.79 18.9896 20.6846 19.1771 20.4971C19.3646 20.3096 19.47 20.0552 19.47 19.79C19.47 19.5248 19.3646 19.2704 19.1771 19.0829C18.9896 18.8954 18.7352 18.79 18.47 18.79H7.91Z" fill="#333333"/>
</svg>
