<svg width="374" height="139" viewBox="0 0 374 139" fill="none" xmlns="http://www.w3.org/2000/svg">
<g clip-path="url(#clip0_8_25)">
<path d="M46.1807 0H0V46.2144H46.1807V0Z" fill="#8156AA"/>
<path d="M92.3613 0H46.1807V46.2144H92.3613V0Z" fill="#F0B3DD"/>
<path d="M138.542 0H92.3613V46.2144H138.542V0Z" fill="#5A3F86"/>
<path d="M138.542 46.2144H92.3613V92.4289H138.542V46.2144Z" fill="#C278D0"/>
<path d="M138.542 92.4289H92.3613V138.643H138.542V92.4289Z" fill="#5A3F86"/>
<path d="M92.3613 92.4289H46.1807V138.643H92.3613V92.4289Z" fill="#C278D0"/>
<path d="M46.1807 92.4289H0V138.643H46.1807V92.4289Z" fill="#5A3F86"/>
<path d="M46.1807 46.2144H0V92.4289H46.1807V46.2144Z" fill="#F0B3DD"/>
<path d="M92.3613 46.2144H46.1807V92.4289H92.3613V46.2144Z" fill="#473579"/>
<path d="M320.809 0.515259V63.416H268.489V23.0279H298.432V15.4973H268.331V0.515259H320.809ZM290.788 37.9307V45.4217H298.234V37.9307H290.788Z" fill="#F7F7F7"/>
<path d="M298.551 72.3735V86.9196H320.809V72.3735H298.551Z" fill="#F7F7F7"/>
<path d="M320.69 92.1514H298.551V138.762H320.69V92.1514Z" fill="#F7F7F7"/>
<path d="M235.339 0.792694H213.714V78.5962H235.339V0.792694Z" fill="#F7F7F7"/>
<path d="M259.142 0.792694H217.12V15.4973H259.142V0.792694Z" fill="#F7F7F7"/>
<path d="M168.801 0.792694H147.176V63.3764H168.801V0.792694Z" fill="#F7F7F7"/>
<path d="M168.801 72.3735H147.176V138.96H168.801V72.3735Z" fill="#F7F7F7"/>
<path d="M204.724 0.792694H161.751V15.4973H204.724V0.792694Z" fill="#F7F7F7"/>
<path d="M204.724 48.6718H161.751V63.3764H204.724V48.6718Z" fill="#F7F7F7"/>
<path d="M181.831 124.295H156.88V139H181.831V124.295Z" fill="#F7F7F7"/>
<path d="M235.577 124.295H190.664V138.762H235.577V124.295Z" fill="#F7F7F7"/>
<path d="M209.318 86.9196H190.664V138.128H209.318V86.9196Z" fill="#F7F7F7"/>
<path d="M235.458 107.728H197.476V117.795H235.458V107.728Z" fill="#F7F7F7"/>
<path d="M235.458 86.9196H197.476V101.307H235.458V86.9196Z" fill="#F7F7F7"/>
<path d="M235.458 98.6119H216.764V108.838H235.458V98.6119Z" fill="#F7F7F7"/>
<path d="M181.831 86.5629H156.88V101.267H181.831V86.5629Z" fill="#F7F7F7"/>
<path d="M351.741 0.792694H330.116V78.5962H351.741V0.792694Z" fill="#F7F7F7"/>
<path d="M373.406 0.792694H333.483V15.4973H373.406V0.792694Z" fill="#F7F7F7"/>
<path d="M373.406 22.9883H333.483V37.9703H373.406V22.9883Z" fill="#F7F7F7"/>
<path d="M290.748 71.6601H268.331V138.762H290.748V71.6601Z" fill="#F7F7F7"/>
<path d="M275.104 86.9196H244.448V100.95H275.104V86.9196Z" fill="#F7F7F7"/>
<path d="M259.499 99.6424H244.448V127.268H259.499V99.6424Z" fill="#F7F7F7"/>
<path d="M275.42 124.811H244.448V138.841H275.42V124.811Z" fill="#F7F7F7"/>
<path d="M374 107.728H329.522V117.795H374V107.728Z" fill="#F7F7F7"/>
<path d="M374 124.295H329.522V139H374V124.295Z" fill="#F7F7F7"/>
<path d="M374 86.9196H354.949V128.893H374V86.9196Z" fill="#F7F7F7"/>
<path d="M348.573 113.911H329.522V130.082H348.573V113.911Z" fill="#F7F7F7"/>
<path d="M374 86.9196H329.522V101.307H374V86.9196Z" fill="#F7F7F7"/>
</g>
<defs>
<clipPath id="clip0_8_25">
<rect width="374" height="139" fill="white"/>
</clipPath>
</defs>
</svg>
