<svg width="33" height="31" viewBox="0 0 33 31" fill="none" xmlns="http://www.w3.org/2000/svg">
<g clip-path="url(#clip0_8_75)">
<path d="M27.2502 5.79887V25.2008C27.2502 25.253 27.2392 25.3047 27.218 25.353C27.1967 25.4012 27.1655 25.4451 27.1262 25.482C27.0869 25.5189 27.0402 25.5482 26.9889 25.5682C26.9375 25.5882 26.8825 25.5984 26.8269 25.5984H6.17323C6.11764 25.5984 6.0626 25.5882 6.01124 25.5682C5.95988 25.5482 5.91322 25.5189 5.87391 25.482C5.8346 25.4451 5.80342 25.4012 5.78215 25.353C5.76088 25.3047 5.74993 25.253 5.74993 25.2008V5.79887C5.74993 5.69341 5.79452 5.59227 5.87391 5.51769C5.95329 5.44312 6.06096 5.40122 6.17323 5.40122H26.8269C26.9392 5.40122 27.0468 5.44312 27.1262 5.51769C27.2056 5.59227 27.2502 5.69341 27.2502 5.79887ZM18.4314 3.11475V0.480326C18.4315 0.414339 18.4172 0.349026 18.3894 0.28846C18.3615 0.227894 18.3206 0.173372 18.2693 0.128292C18.218 0.0832124 18.1574 0.0485417 18.0912 0.0264408C18.025 0.00433997 17.9547 -0.00471721 17.8846 -0.000166186H15.0802C14.9446 -0.000166186 14.8145 0.0504569 14.7186 0.140567C14.6226 0.230676 14.5687 0.352891 14.5687 0.480326V3.11475C14.5687 3.24218 14.6226 3.3644 14.7186 3.4545C14.8145 3.54461 14.9446 3.59524 15.0802 3.59524H17.8846C18.0203 3.59524 18.1504 3.54461 18.2463 3.4545C18.3422 3.3644 18.3961 3.24218 18.3961 3.11475H18.4314ZM18.4314 30.5193V27.8849C18.4314 27.7575 18.3775 27.6353 18.2816 27.5452C18.1856 27.4551 18.0555 27.4044 17.9199 27.4044H15.0802C14.9446 27.4044 14.8145 27.4551 14.7186 27.5452C14.6226 27.6353 14.5687 27.7575 14.5687 27.8849V30.5193C14.5687 30.6468 14.6226 30.769 14.7186 30.8591C14.8145 30.9492 14.9446 30.9998 15.0802 30.9998H17.8846C18.0203 30.9998 18.1504 30.9492 18.2463 30.8591C18.3422 30.769 18.3961 30.6468 18.3961 30.5193H18.4314ZM29.7195 17.2644H32.5238C32.5925 17.2644 32.6605 17.2515 32.7237 17.2263C32.787 17.2011 32.8442 17.1642 32.8919 17.1179C32.9396 17.0715 32.9769 17.0165 33.0016 16.9563C33.0262 16.8961 33.0377 16.8318 33.0353 16.7673V14.1661C33.0354 14.037 32.9821 13.9131 32.8866 13.8203C32.7912 13.7276 32.6611 13.6733 32.5238 13.669H29.6842C29.5469 13.6733 29.4168 13.7276 29.3214 13.8203C29.2259 13.9131 29.1726 14.037 29.1727 14.1661V16.7839C29.1703 16.8484 29.1818 16.9127 29.2064 16.9729C29.2311 17.0331 29.2684 17.088 29.3161 17.1344C29.3639 17.1808 29.4211 17.2177 29.4843 17.2429C29.5475 17.2681 29.6155 17.281 29.6842 17.281L29.7195 17.2644ZM0.546827 17.2644H3.31593C3.38461 17.2644 3.4526 17.2515 3.51583 17.2263C3.57907 17.2011 3.63626 17.1642 3.68399 17.1179C3.73173 17.0715 3.76903 17.0165 3.79367 16.9563C3.81831 16.8961 3.82979 16.8318 3.82743 16.7673V14.1661C3.8275 14.037 3.77418 13.9131 3.67873 13.8203C3.58329 13.7276 3.45319 13.6733 3.31593 13.669H0.511551C0.374297 13.6733 0.244199 13.7276 0.148751 13.8203C0.0533035 13.9131 -1.62476e-05 14.037 6.00676e-05 14.1661V16.7839C-0.00230823 16.8484 0.00917113 16.9127 0.0338135 16.9729C0.0584559 17.0331 0.0957565 17.088 0.143491 17.1344C0.191225 17.1808 0.248415 17.2177 0.311651 17.2429C0.374886 17.2681 0.442871 17.281 0.511551 17.281L0.546827 17.2644ZM6.13795 3.31357L4.16254 1.3916C4.06159 1.30427 3.92938 1.2558 3.79215 1.2558C3.65492 1.2558 3.52271 1.30427 3.42176 1.3916L1.44635 3.31357C1.35338 3.4084 1.30178 3.5326 1.30178 3.66151C1.30178 3.79043 1.35338 3.91463 1.44635 4.00945L3.42176 5.79887C3.46953 5.84599 3.527 5.88351 3.59066 5.90914C3.65433 5.93477 3.72288 5.94799 3.79215 5.94799C3.86142 5.94799 3.92997 5.93477 3.99364 5.90914C4.05731 5.88351 4.11477 5.84599 4.16254 5.79887L6.13795 3.94318C6.21233 3.85311 6.25269 3.74236 6.25269 3.62837C6.25269 3.51439 6.21233 3.40364 6.13795 3.31357ZM31.5185 27.0896L29.5431 25.2339C29.4421 25.1466 29.3099 25.0981 29.1727 25.0981C29.0355 25.0981 28.9033 25.1466 28.8023 25.2339L26.8269 27.0896C26.7767 27.1345 26.7368 27.1885 26.7095 27.2483C26.6822 27.3081 26.6682 27.3725 26.6682 27.4376C26.6682 27.5026 26.6822 27.567 26.7095 27.6268C26.7368 27.6867 26.7767 27.7406 26.8269 27.7855L28.8023 29.6412C28.9033 29.7285 29.0355 29.777 29.1727 29.777C29.3099 29.777 29.4421 29.7285 29.5431 29.6412L31.5185 27.7855C31.6115 27.6907 31.6631 27.5665 31.6631 27.4376C31.6631 27.3087 31.6115 27.1845 31.5185 27.0896ZM29.4902 5.79887L31.4656 3.94318C31.5585 3.84835 31.6102 3.72415 31.6102 3.59524C31.6102 3.46632 31.5585 3.34212 31.4656 3.2473L29.4902 1.3916C29.3892 1.30427 29.257 1.2558 29.1198 1.2558C28.9826 1.2558 28.8503 1.30427 28.7494 1.3916L26.774 3.31357C26.7238 3.35845 26.6839 3.41243 26.6566 3.47224C26.6293 3.53205 26.6152 3.59644 26.6152 3.66151C26.6152 3.72658 26.6293 3.79098 26.6566 3.85079C26.6839 3.9106 26.7238 3.96458 26.774 4.00945L28.7494 5.79887C28.7972 5.84599 28.8546 5.88351 28.9183 5.90914C28.982 5.93477 29.0505 5.94799 29.1198 5.94799C29.1891 5.94799 29.2576 5.93477 29.3213 5.90914C29.3849 5.88351 29.4424 5.84599 29.4902 5.79887ZM4.19782 29.5584L6.17323 27.7027C6.22339 27.6578 6.26333 27.6038 6.29061 27.544C6.3179 27.4842 6.33197 27.4198 6.33197 27.3547C6.33197 27.2897 6.3179 27.2253 6.29061 27.1655C6.26333 27.1056 6.22339 27.0517 6.17323 27.0068L4.19782 25.1511C4.15004 25.104 4.09258 25.0665 4.02891 25.0408C3.96524 25.0152 3.89669 25.002 3.82743 25.002C3.75816 25.002 3.68961 25.0152 3.62594 25.0408C3.56227 25.0665 3.50481 25.104 3.45704 25.1511L1.48162 27.0068C1.38866 27.1016 1.33705 27.2258 1.33705 27.3547C1.33705 27.4836 1.38866 27.6078 1.48162 27.7027L3.52759 29.5584C3.62346 29.6282 3.74136 29.6661 3.8627 29.6661C3.98404 29.6661 4.10194 29.6282 4.19782 29.5584Z" fill="#F7F7F7"/>
</g>
<defs>
<clipPath id="clip0_8_75">
<rect width="33" height="31" fill="white"/>
</clipPath>
</defs>
</svg>
