<svg width="25" height="22" viewBox="0 0 25 22" fill="none" xmlns="http://www.w3.org/2000/svg">
<g clip-path="url(#clip0_11_121)">
<path d="M1.24829 0C0.917223 0 0.599715 0.128574 0.365616 0.357437C0.131516 0.586299 0 0.896704 0 1.22036L0 20.7796C0 21.1033 0.131516 21.4137 0.365616 21.6426C0.599715 21.8714 0.917223 22 1.24829 22H3.74487C4.07594 22 4.39344 21.8714 4.62754 21.6426C4.86164 21.4137 4.99316 21.1033 4.99316 20.7796V1.22036C4.99316 0.896704 4.86164 0.586299 4.62754 0.357437C4.39344 0.128574 4.07594 0 3.74487 0L1.24829 0ZM16.2449 0C14.5133 0 12.8206 0.501992 11.3808 1.4425C9.94101 2.383 8.81884 3.71978 8.15618 5.28378C7.49353 6.84778 7.32015 8.56877 7.65797 10.2291C7.99579 11.8894 8.82963 13.4146 10.0541 14.6116C11.2785 15.8086 12.8385 16.6238 14.5368 16.9541C16.2352 17.2843 17.9955 17.1148 19.5953 16.467C21.1951 15.8192 22.5625 14.7221 23.5245 13.3145C24.4865 11.907 25 10.2521 25 8.55927C25 6.28921 24.0776 4.11213 22.4357 2.50695C20.7938 0.901778 18.5669 0 16.2449 0Z" fill="#F7F7F7"/>
<path d="M4.54856 0H0.444596C0.199053 0 0 0.1946 0 0.43465V21.5653C0 21.8054 0.199053 22 0.444596 22H4.54856C4.79411 22 4.99316 21.8054 4.99316 21.5653V0.43465C4.99316 0.1946 4.79411 0 4.54856 0Z" fill="#F7F7F7"/>
</g>
<defs>
<clipPath id="clip0_11_121">
<rect width="25" height="22" fill="white"/>
</clipPath>
</defs>
</svg>
