<svg width="44" height="45" viewBox="0 0 44 45" fill="none" xmlns="http://www.w3.org/2000/svg">
<path d="M27.3719 32.714C23.0793 32.714 19.0297 31.0327 15.9925 27.9572C12.9553 24.8816 11.295 20.7809 11.295 16.4342C11.295 12.0874 12.9553 7.98667 15.9925 4.91113C19.0297 1.83559 23.0793 0.154297 27.3719 0.154297C31.6644 0.154297 35.714 1.83559 38.7512 4.91113C45.0281 11.2672 45.0281 21.6011 38.7512 27.9572C35.714 31.0327 31.6644 32.714 27.3719 32.714ZM27.3719 4.91113C24.3347 4.91113 21.4595 6.10034 19.3132 8.27372C14.8586 12.7845 14.8586 20.0838 19.3132 24.5946C21.4595 26.768 24.3347 27.9572 27.3719 27.9572C30.409 27.9572 33.2843 26.768 35.4305 24.5946C37.5768 22.4212 38.7512 19.5097 38.7512 16.4342C38.7512 13.3586 37.5768 10.4471 35.4305 8.27372C33.2843 6.10034 30.409 4.91113 27.3719 4.91113ZM0.0776367 39.6032L12.1454 27.3831C12.7528 28.2442 13.4413 29.0644 14.1702 29.8025C14.8991 30.5406 15.709 31.2377 16.5595 31.8529L4.49169 44.073L0.0776367 39.6032Z" fill="#F9F9F9"/>
</svg>
