<svg width="25" height="23" viewBox="0 0 25 23" fill="none" xmlns="http://www.w3.org/2000/svg">
<g clip-path="url(#clip0_8_71)">
<path d="M24.5133 0.000319381H0.505398C0.438394 -0.00200931 0.371589 0.00841619 0.309169 0.0309428C0.246748 0.0534694 0.190055 0.0876119 0.142643 0.131231C0.0952303 0.174851 0.0581189 0.227008 0.0336335 0.284435C0.00914803 0.341862 -0.00218403 0.403322 0.000347154 0.464966V22.5523C0.000302212 22.6125 0.0134712 22.6722 0.0390661 22.7277C0.0646609 22.7831 0.102156 22.8333 0.149307 22.8751C0.196458 22.9169 0.252297 22.9496 0.313482 22.9711C0.374667 22.9926 0.439941 23.0026 0.505398 23.0003H24.5133C24.6425 23.0003 24.7664 22.9531 24.8577 22.8691C24.949 22.7851 25.0003 22.6711 25.0003 22.5523V0.464966C25.0028 0.404745 24.992 0.344693 24.9686 0.288403C24.9452 0.232113 24.9097 0.180742 24.8642 0.137362C24.8188 0.0939833 24.7643 0.0594881 24.704 0.0359408C24.6437 0.0123935 24.5788 0.000278035 24.5133 0.000319381ZM20.3106 18.2543C20.3106 18.3731 20.2593 18.4871 20.1679 18.5711C20.0766 18.6551 19.9527 18.7023 19.8236 18.7023H5.10496C5.03951 18.7046 4.97423 18.6946 4.91305 18.6731C4.85186 18.6516 4.79603 18.619 4.74887 18.5771C4.70172 18.5353 4.66423 18.4851 4.63863 18.4297C4.61304 18.3742 4.59987 18.3146 4.59991 18.2543V4.69657C4.59738 4.63492 4.60872 4.57346 4.6332 4.51604C4.65769 4.45861 4.6948 4.40645 4.74221 4.36283C4.78962 4.31921 4.84631 4.28507 4.90874 4.26254C4.97116 4.24002 5.03796 4.22959 5.10496 4.23192H19.8416C19.9071 4.23188 19.972 4.244 20.0323 4.26754C20.0925 4.29109 20.1471 4.32559 20.1925 4.36896C20.238 4.41234 20.2735 4.46372 20.2969 4.52001C20.3203 4.5763 20.3311 4.63635 20.3286 4.69657L20.3106 18.2543Z" fill="#F7F7F7"/>
</g>
<defs>
<clipPath id="clip0_8_71">
<rect width="25" height="23" fill="white"/>
</clipPath>
</defs>
</svg>
