<svg width="19" height="21" viewBox="0 0 19 21" fill="none" xmlns="http://www.w3.org/2000/svg">
<path d="M15.9062 4.86691C15.7733 4.79823 15.644 4.72294 15.5186 4.64133C15.1541 4.40034 14.8199 4.11639 14.5232 3.79559C13.7808 2.94615 13.5035 2.08441 13.4014 1.48107H13.4055C13.3202 0.980273 13.3554 0.65625 13.3608 0.65625H9.97945V13.7312C9.97945 13.9068 9.97945 14.0803 9.97207 14.2517C9.97207 14.273 9.97002 14.2927 9.96879 14.3157C9.96879 14.3251 9.96879 14.335 9.96674 14.3448C9.96674 14.3473 9.96674 14.3497 9.96674 14.3522C9.93109 14.8213 9.78071 15.2745 9.52882 15.6719C9.27692 16.0692 8.93123 16.3986 8.52217 16.631C8.09583 16.8736 7.61363 17.0008 7.12312 17.0002C5.54771 17.0002 4.2709 15.7155 4.2709 14.1291C4.2709 12.5426 5.54771 11.258 7.12312 11.258C7.42134 11.2577 7.71772 11.3046 8.00127 11.397L8.00537 7.95416C7.1446 7.84297 6.27013 7.91138 5.43712 8.15507C4.60411 8.39876 3.83065 8.81244 3.16552 9.37002C2.58272 9.8764 2.09275 10.4806 1.71767 11.1554C1.57494 11.4015 1.0364 12.3904 0.971188 13.9954C0.930173 14.9063 1.20375 15.8501 1.33418 16.2401V16.2483C1.41621 16.478 1.73408 17.2618 2.25211 17.9226C2.66982 18.4526 3.16335 18.9182 3.71677 19.3044V19.2962L3.72498 19.3044C5.36191 20.4168 7.17685 20.3438 7.17685 20.3438C7.49103 20.331 8.54349 20.3438 9.73869 19.7773C11.0643 19.1494 11.819 18.2138 11.819 18.2138C12.3011 17.6548 12.6845 17.0177 12.9527 16.33C13.2586 15.5256 13.3608 14.561 13.3608 14.1754V7.23885C13.4018 7.26346 13.9481 7.6248 13.9481 7.6248C13.9481 7.6248 14.7352 8.1293 15.9632 8.45783C16.8442 8.69162 18.0312 8.74084 18.0312 8.74084V5.38412C17.6153 5.42924 16.7708 5.29799 15.9062 4.86691Z" fill="#F9F9F9"/>
</svg>
