<svg width="23" height="22" viewBox="0 0 23 22" fill="none" xmlns="http://www.w3.org/2000/svg">
<g clip-path="url(#clip0_11_113)">
<path d="M20.4483 0H2.55167C1.87493 0 1.2259 0.257148 0.747367 0.714873C0.268836 1.1726 0 1.79341 0 2.44073L0 19.5593C0 20.2066 0.268836 20.8274 0.747367 21.2851C1.2259 21.7429 1.87493 22 2.55167 22H20.4483C21.1237 21.9956 21.77 21.7371 22.2476 21.2803C22.7251 20.8235 22.9954 20.2052 23 19.5593V2.44073C23 1.79341 22.7312 1.1726 22.2526 0.714873C21.7741 0.257148 21.1251 0 20.4483 0ZM13.9818 17.1018L10.4863 12.4377L6.30927 17.1018H4.99848L9.94453 11.7021L4.99848 5.0152H9.10562L12.234 9.12766L16.079 4.88146H17.3549L12.8108 9.89666L18.054 17.0851L13.9818 17.1018Z" fill="#F7F7F7"/>
</g>
<defs>
<clipPath id="clip0_11_113">
<rect width="23" height="22" fill="white"/>
</clipPath>
</defs>
</svg>
